<svg height="2357" viewBox="19.73 36.04 912.87 878.02" width="2500" xmlns="http://www.w3.org/2000/svg"><path d="m850.32 758.93c50.12 0 82.28 39.59 74.25 87.71h-114.79c2.51 20.88 19.93 33.9 39.43 33.88 17.74-.02 32.38-8.07 40.3-24.38l31.7 16.02c-12.92 25.3-40.09 41.9-70.88 41.9-46.33-.24-78.55-34.73-78.55-77.56s32.47-77.32 78.55-77.56h-.01zm38.29 61.36c-3.83-16.09-21.2-27.88-38.83-27.88s-34.48 11.31-38.83 27.88zm-156.87-57.15-36.02 105.35-35.78-105.35h-40.54l53.63 146.7h45.63l53.62-146.7zm-170.2-.01h38.13v146.7h-38.13zm0-56.82h38.14v38.16h-38.14zm-80.12 72.74-1.1-15.9h-35.37v146.69h38.13v-63.73c0-35.99 27.38-51.46 57.64-44.82v-39.2c-18.42-4.61-45.47-1.77-59.29 16.96m-157.83 94.51h-29.33v-114.15h29.33c33.61 0 57.34 23.46 57.34 57.08s-23.73 57.09-57.34 57.09zm0-150.43h-67.49v186.71h67.49c54.42 0 95.48-40.01 95.48-93.36s-41.07-93.36-95.48-93.36v.03zm-199.71 55.15-1.1-15.15h-35.37v146.7h38.13v-75.47c0-44.99 62.16-48.43 62.16-9.9v85.37h38.14v-88.77c0-65.74-72.51-73.78-101.96-42.77zm-104.15-15.15h38.14v146.7h-38.14zm-.01-56.82h38.14v38.16h-38.14z" fill="#1b1b1c"/><path d="m160.67 339.02c0-84.11 0-126.19 11.73-160.03 21.34-61.52 69.71-109.89 131.23-131.23 33.84-11.72 75.92-11.72 160.03-11.72s126.19 0 160.03 11.72a212.605 212.605 0 0 1 131.23 131.23c11.73 33.84 11.73 75.9 11.73 160.03s0 126.19-11.73 160.03c-21.34 61.54-69.69 109.88-131.23 131.23-33.84 11.73-75.9 11.73-160.03 11.73s-126.19 0-160.03-11.73c-61.54-21.35-109.89-69.69-131.23-131.23-11.73-33.84-11.73-75.9-11.73-160.03" fill="#a7e92f"/><path d="m349.87 179.69h-.29c-3.89 0-7.23 0-9.93.36-2.87.38-5.62 1.25-7.86 3.49s-3.11 5-3.49 7.86c-.35 2.68-.35 6.04-.35 9.93v26.17c0 3.89 0 7.23.35 9.93.4 2.88 1.25 5.62 3.49 7.86s5 3.11 7.86 3.49c2.67.35 6.04.35 9.93.35h28.07c3.89 0 7.23 0 9.93-.35 2.87-.38 5.62-1.25 7.86-3.49s3.11-5 3.49-7.86c.36-2.67.36-6.04.36-9.93v-26.17c0-3.89 0-7.23-.36-9.93-.39-2.88-1.25-5.62-3.49-7.86s-5-3.11-7.86-3.49c-2.67-.36-6.04-.36-9.93-.36zm0 119.46h-.29c-3.89 0-7.23 0-9.93.36-2.87.4-5.62 1.25-7.86 3.49s-3.11 5-3.49 7.86c-.35 2.67-.35 6.04-.35 9.93v155.12c0 3.89 0 7.24.35 9.93.4 2.89 1.25 5.62 3.49 7.86s5 3.11 7.86 3.49c2.67.35 6.04.35 9.93.35h28.07c3.89 0 7.23 0 9.93-.35 2.87-.4 5.62-1.25 7.86-3.49s3.11-5 3.49-7.86c.36-2.67.36-6.04.36-9.93v-155.12c0-3.89 0-7.23-.36-9.93-.39-2.89-1.25-5.62-3.49-7.86s-5-3.11-7.86-3.49c-2.67-.36-6.04-.36-9.93-.36zm122.99-119.46h30.9c91.62 0 161.03 67.68 161.03 158.95s-69.42 158.94-161.03 158.94h-30.9c-3.88 0-7.23 0-9.93-.35-2.88-.39-5.62-1.26-7.86-3.49-2.23-2.24-3.11-5-3.49-7.86-.35-2.67-.35-6.04-.35-9.93v-25.54c0-3.89 0-7.23.35-9.93.38-2.88 1.26-5.62 3.49-7.86 2.24-2.24 5-3.12 7.86-3.49 2.67-.35 6.04-.35 9.93-.35h30.9c26.5 0 48.87-9.33 64.61-25.11 15.74-15.76 25.08-38.25 25.08-65.01s-9.36-49.24-25.08-65.01c-15.74-15.78-38.11-25.11-64.59-25.11h-30.89c-3.89 0-7.23 0-9.93-.35-2.89-.38-5.62-1.25-7.86-3.49s-3.11-5-3.49-7.86c-.35-2.67-.35-6.04-.35-9.93v-25.54c0-3.89 0-7.23.35-9.93.38-2.89 1.25-5.62 3.49-7.86s5-3.11 7.86-3.49c2.67-.35 6.04-.35 9.93-.35l-.02-.04z" fill="#1b1b1c"/></svg>