<svg xmlns="http://www.w3.org/2000/svg" version="1.1" x="0" y="0" viewBox="0 0 700 700" xml:space="preserve" width="2500" height="2500"><g transform="translate(0,-92) matrix(0.59531246,0,0,0.59531246,204.43738,361.17893)"><path d="M17.877-132.25a10 10 0 0 0-1.076.05C2-130.8-12.7-129.8-27.5-128.6c-21.3 1.8-42.7 3.7-64.1 5.5-22.1 1.9-44.2 3.5-66.2 5.4-25.7 2.1-51.4 4.5-77.1 6.5-4.1.3-4.1 1.3-2.9 4.6 8.2 22.6 16.2 45.2 24.3 67.8 3 8.6 3 8.6 12.5 7.8 2.5-.2 5-.1 7.5-.3 18.5-1.5 37.1-3.1 55.6-4.7 14.6-1.3 29.1-2.6 43.7-3.8 13.9-1.2 27.8-2.2 41.4-3.3-9.6 10-18.9 20.1-28.9 29.6q-92.55 91.8-185.1 183.3c-2.2 2.2-2.2 3.7-.8 6.2 21.2 39.6 42.4 79.2 63.4 118.9 1.5 2.9 3 3.7 6.1 2.7C-118 273-37.9 248.5 42.1 223.9c2.8-.9 4.3-.4 6 2 13 18.2 29.7 32.2 49.4 42.5 36.7 19.1 75.6 23.9 116 16.7 39.2-7 71.2-26 95.4-57.8 1.9-2.4 2.5-3.8-.6-5.8-17-10.9-33.9-21.9-50.8-33-2.1-1.4-3.4-1.5-5.2.7-4.7 6-10.5 11-16.9 15.3-18.9 12.8-39.8 17.2-62.3 14.8-14.3-1.5-26.8-6.8-37.6-16.2-1.1-.9-2.9-1.9-2.7-3.3s2.2-1.5 3.6-1.9c7.3-2.2 14.5-4.6 21.7-6.9 17.4-5.7 35.2-10.3 51.5-19 34.1-18.2 54.1-47.1 48.1-88.8-4.9-34.1-24.9-57.1-57.1-69.1-21.1-7.9-42.9-7.6-64.8-4.1C106.4 14.8 81 27.6 61 49.3c-25.7 27.5-37.9 60.3-37.6 97.8.1 4.1-.8 5.8-5.1 6.8-33.8 7.7-67.5 15.7-101.3 23.6-21.9 5.2-43.8 10.3-65.7 15.4 0-1.7 1.1-2.3 1.9-3.1 12.4-12.5 24.8-25.1 37.3-37.6C-51.6 94.1 6.4 36.1 64.4-21.8c2.6-2.6 3.2-4.5 1.5-8C61.7-38.4 58-47.3 54.2-56c-10.7-24.3-21.4-48.6-32-72.9-.963-2.275-2.002-3.324-4.323-3.35m141.33 209.059c2.531.046 5.119.742 7.594 1.492 14.4 4 18.698 21 8.398 32.5-5.8 6.4-13.299 9.8-21.299 12.1-15.8 4.5-31.8 8.6-47.7 13-2.2.6-3.5.499-3.2-2.301 1.9-24.4 14.3-48 41.3-54.8 4-1.1 8-2.1 12.4-1.8a12.7 12.7 0 0 1 2.507-.191"/><path d="M756.9 118.6c2.4 11.8-1.6 25-9 37.8-5.9 10.1-11 20.8-16.1 31.4-2.4 4.9-1.3 10.5-1.6 15.7-.8 17.4-.9 34.9-1.4 52.4-.2 8.1-4.6 14.8-7.9 21.7-13 26.6-20.3 55.1-28.9 83.2-2.8 9.2-6 18.2-8.1 27.6-1.7 7.5-7.4 11.1-12.4 15.4-15.9 13.5-32.1 26.8-48 40.4-4.8 4.1-10.5 6.2-16 8.9-12.2 5.8-24.7 11.3-36.9 17.2-2.6 1.3-5 1.3-7.5.6-26.3-7.6-52.5-15.4-78.9-22.7-7.2-2-12.7-5.5-17.6-11-21.6-24.2-43.4-48.1-65.1-72.1-2.2-2.5-2.7-5.6-3.7-8.6-7.4-21.8-15.6-43.4-22-65.5-5.3-18.3-9.5-37.1-12.3-55.9-1.6-10.5-8.2-14.9-15.4-20-6-4.2-11.7-8.6-17.9-12.5-4.9-3.1-3.4-8.1-3.8-12.1-1.8-17.3-2.7-34.7-4.4-52-2-19.7-4.5-39.4-6.7-59.2-1.5-13.8-2-27.8-4.5-41.4-1.9-10.3 3.2-18.3 6.2-27 6-17.4 13.8-34.2 18.3-52.2 3.7-14.7 6.7-29.6 9.6-44.4.9-4.2 2.6-7.7 5.4-10.9 13-14.9 25.7-30 39-44.6 6.5-7.1 15.1-11.8 22.8-17.5 16.6-12.3 33.4-24.4 50-36.6 2.1-1.6 4-2 6.8-1.7 6.7.8 13.6.7 20.4 1 13.5.7 27.1 2.4 40.7 1.2 13.2-1.2 26.4-2.5 39.6-3.7 5.5-.5 10.9-.7 16.4-1.3 3.1-.3 4.3 1 5.1 3.8 4.2 13.9 8.7 27.7 12.9 41.6 1.4 4.6 3.7 8.1 7.7 11 34.5 25.2 68.9 50.6 103.4 75.7 4.6 3.4 6.2 8.5 8.6 13C734-35 743.9-15 754 5c.8 1.5 1 3.1 1 4.8.8 26 .7 51.9 1.1 77.9.2 9.3.5 18.6.8 30.9" fill="#ffcc0d"/><path d="M226-137.8c1.6.2 1.6 1.6 2 2.8 7.3 21.8 14.6 43.6 21.9 65.3.2.5.1 1 .3 1.4 2.4 3.8 1.2 5.2-3 6.6-40.5 13.1-81 26.3-121.4 39.8-4.1 1.4-5.4 0-6.9-3.4-6.7-15.7-13.6-31.4-20.6-47.1-1-2.3-1.2-3.3 1.6-4.7 41-19.6 81.8-39.3 122.7-59.1 1.2-.4 2.2-1 3.4-1.6" fill="#010101"/><path d="M145.8 338.4c-3.3 0-2.7 2.2-2.7 4.1v82c0 2.1-.2 4 2.9 3.9q7.5-.15 15 0c2.1 0 2.8-.8 3-2.9.9-10.5 1.9-20.9 3-31.3.2-1.8-1.3-4.7 2.5-4.7 3 .1 6.1-.9 7.5 3.5 3.4 10.7 7.5 21.2 11 31.8.9 2.7 2.1 3.7 4.9 3.6 4.2-.2 8.3-.2 12.5 0 3.4.2 4.3-.5 3.2-4.1-3.4-11-6.4-22.2-9.8-33.2-.7-2.5-.5-3.7 1.9-5 4.3-2.2 6.4-6.1 7.4-10.7 1.4-6.1 1.3-12.3.7-18.4-1.2-11.7-6.3-17.3-18-18-15-.9-30-.4-45-.6m21.657 18.43c.52-.018 1.131.039 1.844.17 1.3.2 2.699 0 3.199 0 3.9.1 7.1.4 10.2.4 3.8.1 5.1 1.4 4.5 5-.1.3 0 .7 0 1-.1 8.5-.1 8.5-8.3 8.9-.5 0-1 .1-1.5.1-12.2.7-12 .7-12.6-10.9-.162-3.088.402-4.59 2.657-4.67M-246.8 337.934c-2.47.04-2.7 1.441-2.7 4.066.2 13.9.1 27.9.1 41.9 0 14.2.1 28.3-.1 42.5-.1 2.6.3 3.9 3.4 3.6 13.8-1.4 27.8-2.3 41.6-4.2 11.9-1.6 18.4-10.1 19.4-22.2 1.1-13.4.9-26.8 0-40.3-.8-11.5-7-19.5-18-21-14.1-1.9-28.3-2.7-42.5-4.3a10 10 0 0 0-1.2-.066m23.279 21.824c.77-.012 1.646.073 2.62.242 4.1.6 8.201.8 12.401 1 2.4.1 2.6 1.5 2.5 3.4-.7 13.3-1.3 26.5-1.9 39.8-.1 1.8-.5 2.8-2.5 2.9-3.8.2-7.6.6-11.4 1-2.4.3-3.3-.3-3.5-3.1-1.3-13-.1-26-1.7-38.7-1.219-4.63.138-6.49 3.479-6.542"/><path d="M29.1 428.4c-4.7 0-9.3-.1-14 0-2.3.1-3.5-.5-4.1-3.1-7-27.9-14.1-55.7-21.4-83.6-.8-3.1.1-3.4 2.6-3.3 6.7.1 13.3.1 20 0 2.7 0 3.5.8 3.9 3.6 3.4 20.9 7.2 41.7 10.8 62.6.3 1.9.2 3.6 3 3.6 2.7 0 2.4-1.9 2.7-3.4 3.2-18.3 6.5-36.5 9.4-54.9 1.8-11.5 1.5-11.6 13.3-11.6h9c5.8 0 5.8 0 4.4 5.4-6.9 26.7-13.8 53.3-20.5 80-.8 3.3-1.9 4.8-5.5 4.5-4.6-.1-9.1.2-13.6.2m-201.1-45c0-13.7.1-27.3-.1-41-.1-3.4 1-4.1 4.2-4.1q22.95.3 45.9 0c3.4 0 4.2 1.1 4 4.2-1 16.1 2.6 12.6-13.9 14.3-5.3.6-13.771.9-19.071 1.3 0 0-.129.8.171 3.7 1.2 10.2.83 11.1.83 11.1h12.07c14.6.5 14.5.5 13.8 15.1-.1 2.3-.7 3.2-3.1 3.2-6.3.1-16.652.6-22.952.6 0 0-.148.7-.048 3.9.1 3.3-.1 6.7-.7 9.9-.5 2.9.17 3.3.17 3.3 8.4-.7 19.63-1.2 28.03-2.1 3-.3 4.2.4 4.2 3.5 0 5.8 2.6 13.1-.5 17-2.7 3.4-10.3.9-15.7 1-11.3.2-22.6 0-34 .1-2.8 0-3.6-.7-3.6-3.6.4-13.7.3-27.6.3-41.4m398.3-44.9c12.9 0 12.9 0 17.3 12 2.4 6.5 4.9 12.9 7.3 19.4.5 1.3.5 3.2 2.6 3.1 1.8-.1 1.7-1.9 2-3 2.9-8.9 5.9-17.8 8.5-26.8 1.1-3.7 2.7-5 6.6-4.8 5.6.4 11.3.3 17 0 4-.2 3.5 1.3 2.4 3.9-10 22.1-20 44.3-30 66.4-2.4 5.4-4.8 10.9-7.3 16.2-.7 1.4-.9 3.4-3.1 3.4-5 0-10 .2-15-.1-2.9-.1-1.5-2.5-1.2-3.8 1.7-7.7 3.5-15.4 5.5-23.1.9-3.4.5-6.3-1-9.5-8-16.3-15.7-32.8-23.6-49.1-1.6-3.3-1.7-4.8 2.6-4.4 3 .4 6.2.2 9.4.2m-331.3 45c0-13.7.1-27.3-.1-41 0-3.3.9-4.3 4.2-4.1 4.1.3 8.3.2 12.5 0 3.1-.2 4.1 1 4.2 4 .2 9.6.7 19.3 1 28.9.4 11 1.2 21.9 1 32.9-.1 5.1 2.1 5.2 5.8 4.8 6.4-.7 12.9-1.2 19.3-2 2.9-.3 4.1.3 4.1 3.6-.1 5-.4 10 .5 14.9.4 2.1-.6 2.9-2.8 2.9-15.7-.1-31.3-.1-47 0-3.4 0-2.7-2.1-2.7-3.9z" fill="#010101"/><path d="M-42.3 384c0-13.8 1.6-27.6 1.4-41.4 0-3.4 1.1-4.4 4.3-4.2 5 .4 11.4-2 14.5.9s.9 9.4 1 14.3c.7 23.1 1.1 46.2 1.9 69.3.2 4.4-.9 5.9-5.4 5.5-4.6-.4-9.3-.3-14 0-3.3.2-3.8-1-3.8-4 .1-13.5.1-27 .1-40.4" fill="#010201"/><path d="M361.3 171.8c-1.9 3.9-3 6.6-4.5 9.2-.7 1.4-.9 4-2.6 3.7-2.1-.4-4.3-2.1-4.7-4.7-.6-3.4-1-6.9-1.4-10.4-2.1-16.7-4.3-33.3-6.4-50-.4-3.3-1.2-5.4-5.1-3.6-2.3 1.1-3.2.2-3.2-2.4.3-22.2.6-44.3.8-66.5 0-2.1 1.2-3.4 2.3-4.8 5.6-7.2 11.1-14.6 16.9-21.7 2.2-2.7 2.7-4.3-.6-6.6-4.2-2.9-8-6.4-12.9-10.4 7.3-2.1 13.8-4.4 20.5-5.9 4.9-1.1 4.9-2.6 2.8-6.8-9.4-18.7-8.5-37.9-1.3-57.1 1.2-3.2 2.5-4.1 4.9-.9 1.4 1.8 3.1 3.4 4.8 5.1.2.2.6.2 1.1.4 3.3-12.5 7.2-24.9 13.2-36.4.8-1.6 1.6-3.4 2.9-4.6 20.1-19.1 37.4-40.8 57.7-59.6 11.9-11 24.1-21.5 39.8-27 3.1-1.1 5.3-.4 7.7 1.6 1.5 1.3 1.9 2.2.3 3.5-.3.2-.4.5-.7.8-20.4 18.2-23.3 43.5-27.3 68.4 6.6-7.6 13.7-14.7 19.4-23.1 2.2-3.2 4.4-6.3 5.9-9.8 5.2-12 16.2-18.1 26-26.2.9 3.9 1.9 7.2 2.4 10.5.8 4.3 2.1 5.3 6.4 3 15.1-8.2 30.4-15.9 45.6-23.8 1-.5 2.1-1 4.1-2.1-3.2 7.9-6 14.9-8.8 21.9-.4 1.1-.7 2.2-1.3 3.2-5.4 8.8-5.3 17.2.7 25.8 1.9 2.7 2.1 6.6 2.9 10 .5 2 1 3.4 3.5 3.2 2.2-.2 4.7.6 5.6-2.7.7-2.6 1.9-5 2.6-7.5.8-2.8 2-2.7 4.2-1.3 30.3 18.8 60.6 37.5 90.4 57 10 6.5 15.4 16.6 18.8 27.5 2.4 7.9 6.2 14 13.9 17.5 8.2 3.7 12.8 10.7 16.3 18.6C727.2-8 729.7-3 732 2.2c.6 1.3 1.9 2.8.6 4.1-1 1-2.5-.3-3.8-.4-1.1 0-2.2-.3-4.2-.6 3.8 7.3 6.8 14.3 8.6 21.9 3.9 16.2 6.3 32.7 7.6 49.3.9 11-1.5 22-4.2 32.6-2.6 10.1-3.6 20.3-3.2 30.6.1 3.7-.2 7.4.1 11 .4 4.5-1.3 4.9-4.6 2.8-3-1.9-4.2-1.1-5.3 2.3-7.2 20.9-9.1 42.9-12.5 64.5-1.9 12.3-2.8 24.8-4 37.2-.1 1.4-.5 2.6-1.3 3.7-11.8 18-18.7 38-23.9 58.8-5.8 23.3-14 45.8-26.2 66.7-2.4 4.1-5.1 6.7-9.8 7.2-3.6.3-6.2 2-8 5.2-.6 1.2-1.7 2.1-2.4 3.2-10.7 18.1-26 31-44.8 40.3-7.4 3.7-15 3.7-22.5 5.3-4.7 1-9.1.2-13.6-1.6-8.6-3.5-17.4-6.7-26-10.3-3.2-1.3-4.4-1.2-4.6 2.6-.3 6.3-.5 6.3-6.6 4-8.4-3.2-16.7-6.7-25.2-9.4-6.4-2.1-11.4-5.6-15.6-10.8-13.7-16.8-27.8-33.2-41.4-50-9.5-11.7-13.4-25.9-17.1-40.1-2-7.7-4.1-15.4-5.8-23.2-.6-2.5-1.1-3.6-3.8-2.4-2.5 1.2-3.5 0-4.6-2.5-10.9-24.6-15.7-50.8-20.3-77-.9-5.2-2.2-9.5-5.5-13.3-6.3-7.2-7.5-16.6-10.8-25-2.2-5.2-3.8-10.6-6-17.1" fill="#080a0b"/><path d="M445.2 110.1c16.8-3.2 33.7-3.9 50.7-4.1 5-.1 9.9-.5 14.6-3.6-4.1-.9-7.7-1.8-11.4-2.6.1-2.5 3.1-2.5 3.7-4.6-19.1-5.6-38.3-7.9-58-3.2-19 4.5-37.2 11-53.8 21.3-1.9-9.7-3-20.7-3.7-31.7-.3-5.2 1.6-10.1 4.3-14.7 8.6-14.7 19.7-27.2 32.8-38 2.2-1.8 3.8-1.8 6.3-.9 17.2 6.2 34.5 12.1 51.7 18.4 9.4 3.4 19.1 1.5 28.6 2.6 21.3 2.4 41-5.2 61.1-10.2 17.8-4.4 34.6-11.9 51.7-18.3 17-6.4 33-2.7 49 3.4 4 1.5 6.9 4.5 8.4 8.7 8.7 24.3 12.6 49.2 9.6 75-.2 1.5-.1 3-1.2 4.4-10.1-5.3-21.1-6.8-32.3-7.1-22-.4-43.9.9-65.4 6.2-6.8 1.7-13.3 4.3-19.2 8.2-3.5 2.3-7.6 4.6-9 8.4-2.6 7-7.6 7-13.4 6.5q-3-.15-6 0c-7.5.1-13.9 0-20.3-6.5-9.2-9.3-22.7-11.1-35.3-13.8-14.4-3.1-29.1-3-43.7-3.1-.3-.2-.3-.4-.2-.5s.2-.2.4-.2m-42.6 97.6c4.3 4.9 9.3 8.6 14.6 11.9 21.3 13.2 44.2 17.8 68.3 10.4 24.8-7.6 37.7-26.7 44.3-50.6 2.2-8 3.5-16.3 3.1-24.7-.1-3 .7-4.1 3.9-4 4.7.3 9.3.3 14 0 4.4-.3 5.9.8 5.9 5.6.1 29.5 18.3 55.5 45.7 66 28.7 11 60.8 2.4 80.3-21.3.5-.6 1-1.2 2-2.3 1.2 5.4-.5 10-1 14.6-1 9.1-2.5 18.1-3.6 27.2-.2 1.8-.6 3.1-2.3 4.1-10.3 5.9-20.5 11.8-30.7 17.7-5.4 3.1-10.8 3.3-16.7 1.1-8.6-3.2-17-6.8-25.7-9.5-11.7-3.6-21.6-1.2-30 7.6-2.4 2.5-5.1 4.8-7.8 7-14.7 11.4-29.8 9.3-40.2-6.2-2.9-4.2-5.2-4.7-9-2.3-.3.2-.6.2-.9.3-7.2 3-7.2 3-3.9 10-7.2 2.5-14.5 4.4-22.1 4.7-16.3.6-32.6.8-48.9 1.3-5.2.2-8.9-2.4-12.1-5.9-6.7-7.1-11.5-15.6-15.3-24.4-4.8-11.1-9.2-22.4-12-34.3-.4-1.2-.9-2.3.1-4" fill="#ffcb0e"/><path d="M456.5 127.1c12.9.1 25.3 1.1 37.3 5.1 18 6 24.1 15.5 22.2 34.2-2.4 23.6-20.6 45.8-42.9 50.4-37.7 7.9-61.3-17.1-66-46.5-.8-5.1-1-10.2-.6-15.4 1.1-11.6 7.6-18.8 18-23s21.4-4.6 32-4.8M652 121c6.5-.1 13-.1 19.2 2.1 7.1 2.5 11.7 7.4 12.5 14.8 2 18.6-.9 36.3-12.6 51.5-14.1 18.2-33.7 23.5-55.3 19.3-22.1-4.3-34.9-19.6-40.7-40.7-5.5-20 1.6-33.3 21.3-40.1 13.4-4.7 27.4-6.7 41.6-6.8 4.7.7 9.3.8 14-.1M480.5 332.1q17.1-1.05 33.9-2.1c18.3-1.1 36.6-2.2 54.8-3.2 2.9-.2 5.5-1.1 8-2.5 14.2-8 28.7-15.3 44.7-19.2 3.2-.8 4.5-.4 6.6 2.5 4.3 6 3.3 10.4-.9 16.1-11.9 16.3-23.2 32.9-34.4 49.6-2.5 3.7-4.6 4.1-8.4 2.6-7.6-2.9-15.4-5.3-23-8.2-2.9-1.1-5.3-.9-8.1.3-13.5 6.1-26.9 12.2-41.8 14.5-2.4.4-3.9.4-5.3-2.1-8.5-15.6-17.2-31.2-25.8-46.8-.1-.2-.1-.7-.3-1.5" fill="#ffcb0e"/><path d="M652 121c-4.7 1.6-9.3 1.6-14 .1 4.7-.6 9.3-.5 14-.1" fill="#fed507"/><path d="M563.2 82.8c40.9-26.4 93.5-23.7 125 10.4-2.8 0-5 .2-7.2-.1-3.6-.5-2.7 2.4-3.2 4.3-26.5-15.6-54.9-14.2-83.5-10-5.4.8-10.7 2.1-16.1 3.2-1.4.3-3.5 1.1-3.5-1.2 0-5.4-3.8-5.2-7.4-5.7-1.4 0-2.7-.5-4.1-.9" fill="#080b0b"/><path d="M78 383.3c0-13.7.1-27.3-.1-41-.1-3.4 1-4.1 4.2-4.1q22.95.3 45.9 0c3.4 0 4.2 1.1 4 4.2-1 16.1 2.6 12.6-13.9 14.3-5.3.6-13.771.9-19.071 1.3 0 0-.129.8.171 3.7 1.2 10.2.83 11.1.83 11.1h12.07c14.6.5 14.5.5 13.8 15.1-.1 2.3-.7 3.2-3.1 3.2-6.3.1-16.652.6-22.952.6 0 0-.148.7-.048 3.9.1 3.3-.1 6.7-.7 9.9-.5 2.9.17 3.3.17 3.3 8.4-.7 19.63-1.2 28.03-2.1 3-.3 4.2.4 4.2 3.5 0 5.8 2.6 13.1-.5 17-2.7 3.4-10.3.9-15.7 1-11.3.2-22.6 0-34 .1-2.8 0-3.6-.7-3.6-3.6.4-13.7.3-27.6.3-41.4" fill="#010101"/><path d="M17.877 850.285a10 10 0 0 0-1.076.05c-14.8 1.4-29.501 2.4-44.301 3.6-21.3 1.8-42.7 3.7-64.1 5.5-22.1 1.9-44.2 3.5-66.2 5.4-25.7 2.1-51.4 4.5-77.1 6.5-4.1.3-4.1 1.3-2.9 4.6 8.2 22.6 16.2 45.2 24.3 67.8 3 8.6 3 8.6 12.5 7.8 2.5-.2 5-.1 7.5-.3 18.5-1.5 37.1-3.1 55.6-4.7 14.6-1.3 29.1-2.6 43.7-3.8 13.9-1.2 27.8-2.2 41.4-3.3-9.6 10-18.9 20.1-28.9 29.6q-92.55 91.8-185.1 183.3c-2.2 2.2-2.2 3.7-.8 6.2 21.2 39.6 42.4 79.2 63.4 118.9 1.5 2.9 3 3.7 6.1 2.7 80.1-24.6 160.2-49.1 240.2-73.7 2.8-.9 4.3-.4 6 2 13 18.2 29.7 32.2 49.4 42.5 36.7 19.1 75.6 23.9 116 16.7 39.2-7 71.2-26 95.4-57.8 1.9-2.4 2.5-3.8-.6-5.8-17-10.9-33.9-21.9-50.8-33-2.1-1.4-3.4-1.5-5.2.7-4.7 6-10.5 11-16.9 15.3-18.9 12.8-39.8 17.2-62.3 14.8-14.3-1.5-26.8-6.8-37.6-16.2-1.1-.9-2.9-1.9-2.7-3.3s2.2-1.5 3.6-1.9c7.3-2.2 14.5-4.6 21.7-6.9 17.4-5.7 35.2-10.3 51.5-19 34.1-18.2 54.1-47.1 48.1-88.8-4.9-34.1-24.9-57.1-57.1-69.1-21.1-7.9-42.9-7.6-64.8-4.1-29.4 4.8-54.8 17.6-74.8 39.3-25.7 27.5-37.9 60.3-37.6 97.8.1 4.1-.8 5.8-5.1 6.8-33.8 7.7-67.5 15.7-101.3 23.6-21.9 5.2-43.8 10.3-65.7 15.4 0-1.7 1.1-2.3 1.9-3.1 12.4-12.5 24.8-25.1 37.3-37.6 57.9-58.1 115.9-116.1 173.9-174 2.6-2.6 3.2-4.5 1.5-8-4.2-8.6-7.9-17.5-11.7-26.2-10.7-24.3-21.4-48.6-32-72.9-.963-2.276-2.002-3.324-4.323-3.35m141.33 209.058c2.531.047 5.119.743 7.594 1.493 14.4 4 18.698 21 8.398 32.5-5.8 6.4-13.299 9.8-21.299 12.1-15.8 4.5-31.8 8.6-47.7 13-2.2.6-3.5.498-3.2-2.302 1.9-24.4 14.3-47.998 41.3-54.798 4-1.1 8-2.101 12.4-1.801.824-.15 1.663-.207 2.507-.192" fill="#ffffff"/><path d="M756.9 1101.135c2.4 11.8-1.6 25-9 37.8-5.9 10.1-11 20.8-16.1 31.4-2.4 4.9-1.3 10.5-1.6 15.7-.8 17.4-.9 34.9-1.4 52.4-.2 8.1-4.6 14.8-7.9 21.7-13 26.6-20.3 55.1-28.9 83.2-2.8 9.2-6 18.2-8.1 27.6-1.7 7.5-7.4 11.1-12.4 15.4-15.9 13.5-32.1 26.8-48 40.4-4.8 4.1-10.5 6.2-16 8.9-12.2 5.8-24.7 11.3-36.9 17.2-2.6 1.3-5 1.3-7.5.6-26.3-7.6-52.5-15.4-78.9-22.7-7.2-2-12.7-5.5-17.6-11-21.6-24.2-43.4-48.1-65.1-72.1-2.2-2.5-2.7-5.6-3.7-8.6-7.4-21.8-15.6-43.4-22-65.5-5.3-18.3-9.5-37.1-12.3-55.9-1.6-10.5-8.2-14.9-15.4-20-6-4.2-11.7-8.6-17.9-12.5-4.9-3.1-3.4-8.1-3.8-12.1-1.8-17.3-2.7-34.7-4.4-52-2-19.7-4.5-39.4-6.7-59.2-1.5-13.8-2-27.8-4.5-41.4-1.9-10.3 3.2-18.3 6.2-27 6-17.4 13.8-34.2 18.3-52.2 3.7-14.7 6.7-29.6 9.6-44.4.9-4.2 2.6-7.7 5.4-10.9 13-14.9 25.7-30 39-44.6 6.5-7.1 15.1-11.8 22.8-17.5 16.6-12.3 33.4-24.4 50-36.6 2.1-1.6 4-2 6.8-1.7 6.7.8 13.6.7 20.4 1 13.5.7 27.1 2.4 40.7 1.2 13.2-1.2 26.4-2.5 39.6-3.7 5.5-.5 10.9-.7 16.4-1.3 3.1-.3 4.3 1 5.1 3.8 4.2 13.9 8.7 27.7 12.9 41.6 1.4 4.6 3.7 8.1 7.7 11 34.5 25.2 68.9 50.6 103.4 75.7 4.6 3.4 6.2 8.5 8.6 13 10.3 19.7 20.2 39.7 30.3 59.7.8 1.5 1 3.1 1 4.8.8 26 .7 51.9 1.1 77.9.2 9.3.5 18.6.8 30.9" fill="#ffcc0d"/><path d="M226 844.735c1.6.2 1.6 1.6 2 2.8 7.3 21.8 14.6 43.6 21.9 65.3.2.5.1 1 .3 1.4 2.4 3.8 1.2 5.2-3 6.6-40.5 13.1-81 26.3-121.4 39.8-4.1 1.4-5.4 0-6.9-3.4-6.7-15.7-13.6-31.4-20.6-47.1-1-2.3-1.2-3.3 1.6-4.7 41-19.6 81.8-39.3 122.7-59.1 1.2-.4 2.2-1 3.4-1.6m-80.2 476.2c-3.3 0-2.7 2.2-2.7 4.1v82c0 2.1-.2 4 2.9 3.9q7.5-.15 15 0c2.1 0 2.8-.8 3-2.9.9-10.5 1.9-20.9 3-31.3.2-1.8-1.3-4.7 2.5-4.7 3 .1 6.1-.9 7.5 3.5 3.4 10.7 7.5 21.2 11 31.8.9 2.7 2.1 3.7 4.9 3.6 4.2-.2 8.3-.2 12.5 0 3.4.2 4.3-.5 3.2-4.1-3.4-11-6.4-22.2-9.8-33.2-.7-2.5-.5-3.7 1.9-5 4.3-2.2 6.4-6.1 7.4-10.7 1.4-6.1 1.3-12.3.7-18.4-1.2-11.7-6.3-17.3-18-18-15-.9-30-.4-45-.6m21.657 18.43c.52-.019 1.131.039 1.844.17 1.3.2 2.699 0 3.199 0 3.9.1 7.1.4 10.2.4 3.8.1 5.1 1.4 4.5 5-.1.3 0 .7 0 1-.1 8.5-.1 8.5-8.3 8.9-.5 0-1 .1-1.5.1-12.2.7-12 .7-12.6-10.9-.162-3.087.402-4.59 2.657-4.67m-414.257-18.896c-2.47.04-2.7 1.44-2.7 4.066.2 13.9.1 27.9.1 41.9 0 14.2.1 28.3-.1 42.5-.1 2.6.3 3.9 3.4 3.6 13.8-1.4 27.8-2.3 41.6-4.2 11.9-1.6 18.4-10.1 19.4-22.2 1.1-13.4.9-26.8 0-40.3-.8-11.5-7-19.5-18-21-14.1-1.9-28.3-2.7-42.5-4.3a10 10 0 0 0-1.2-.066m23.279 21.824c.77-.012 1.646.073 2.62.242 4.1.6 8.201.8 12.401 1 2.4.1 2.6 1.5 2.5 3.4-.7 13.3-1.3 26.5-1.9 39.8-.1 1.8-.5 2.8-2.5 2.9-3.8.2-7.6.6-11.4 1-2.4.3-3.3-.3-3.5-3.1-1.3-13-.1-26-1.7-38.7-1.219-4.63.138-6.49 3.479-6.542M29.1 1410.935c-4.7 0-9.3-.1-14 0-2.3.1-3.5-.5-4.1-3.1-7-27.9-14.1-55.7-21.4-83.6-.8-3.1.1-3.4 2.6-3.3 6.7.1 13.3.1 20 0 2.7 0 3.5.8 3.9 3.6 3.4 20.9 7.2 41.7 10.8 62.6.3 1.9.2 3.6 3 3.6 2.7 0 2.4-1.9 2.7-3.4 3.2-18.3 6.5-36.5 9.4-54.9 1.8-11.5 1.5-11.6 13.3-11.6h9c5.8 0 5.8 0 4.4 5.4-6.9 26.7-13.8 53.3-20.5 80-.8 3.3-1.9 4.8-5.5 4.5-4.6-.1-9.1.2-13.6.2m-201.1-45c0-13.7.1-27.3-.1-41-.1-3.4 1-4.1 4.2-4.1q22.95.3 45.9 0c3.4 0 4.2 1.1 4 4.2-1 16.1 2.6 12.6-13.9 14.3-5.3.6-13.77.9-19.07 1.3-.001 0-.13.8.17 3.7 1.2 10.2.83 11.1.83 11.1h12.07c14.6.5 14.5.5 13.8 15.1-.1 2.3-.7 3.2-3.1 3.2-6.3.1-16.652.6-22.952.6 0 0-.148.7-.048 3.9.1 3.3-.1 6.7-.7 9.9-.5 2.9.17 3.3.17 3.3 8.4-.7 19.63-1.2 28.03-2.1 3-.3 4.2.4 4.2 3.5 0 5.8 2.6 13.1-.5 17-2.7 3.4-10.3.9-15.7 1-11.3.2-22.6 0-34 .1-2.8 0-3.6-.7-3.6-3.6.4-13.7.3-27.6.3-41.4m398.3-44.9c12.9 0 12.9 0 17.3 12 2.4 6.5 4.9 12.9 7.3 19.4.5 1.3.5 3.2 2.6 3.1 1.8-.1 1.7-1.9 2-3 2.9-8.9 5.9-17.8 8.5-26.8 1.1-3.7 2.7-5 6.6-4.8 5.6.4 11.3.3 17 0 4-.2 3.5 1.3 2.4 3.9-10 22.1-20 44.3-30 66.4-2.4 5.4-4.8 10.9-7.3 16.2-.7 1.4-.9 3.4-3.1 3.4-5 0-10 .2-15-.1-2.9-.1-1.5-2.5-1.2-3.8 1.7-7.7 3.5-15.4 5.5-23.1.9-3.4.5-6.3-1-9.5-8-16.3-15.7-32.8-23.6-49.1-1.6-3.3-1.7-4.8 2.6-4.4 3 .4 6.2.2 9.4.2m-331.3 45c0-13.7.1-27.3-.1-41 0-3.3.9-4.3 4.2-4.1 4.1.3 8.3.2 12.5 0 3.1-.2 4.1 1 4.2 4 .2 9.6.7 19.3 1 28.9.4 11 1.2 21.9 1 32.9-.1 5.1 2.1 5.2 5.8 4.8 6.4-.7 12.9-1.2 19.3-2 2.9-.3 4.1.3 4.1 3.6-.1 5-.4 10 .5 14.9.4 2.1-.6 2.9-2.8 2.9-15.7-.1-31.3-.1-47 0-3.4 0-2.7-2.1-2.7-3.9zm62.7.5c0-13.8 1.6-27.6 1.4-41.4 0-3.4 1.1-4.4 4.3-4.2 5 .4 11.4-2 14.5.9s.9 9.4 1 14.3c.7 23.1 1.1 46.2 1.9 69.3.2 4.4-.9 5.9-5.4 5.5-4.6-.4-9.3-.3-14 0-3.3.2-3.8-1-3.8-4 .1-13.5.1-27 .1-40.4" fill="#ffffff"/><path d="M361.3 1154.335c-1.9 3.9-3 6.6-4.5 9.2-.7 1.4-.9 4-2.6 3.7-2.1-.4-4.3-2.1-4.7-4.7-.6-3.4-1-6.9-1.4-10.4-2.1-16.7-4.3-33.3-6.4-50-.4-3.3-1.2-5.4-5.1-3.6-2.3 1.1-3.2.2-3.2-2.4.3-22.2.6-44.3.8-66.5 0-2.1 1.2-3.4 2.3-4.8 5.6-7.2 11.1-14.6 16.9-21.7 2.2-2.7 2.7-4.3-.6-6.6-4.2-2.9-8-6.4-12.9-10.4 7.3-2.1 13.8-4.4 20.5-5.9 4.9-1.1 4.9-2.6 2.8-6.8-9.4-18.7-8.5-37.9-1.3-57.1 1.2-3.2 2.5-4.1 4.9-.9 1.4 1.8 3.1 3.4 4.8 5.1.2.2.6.2 1.1.4 3.3-12.5 7.2-24.9 13.2-36.4.8-1.6 1.6-3.4 2.9-4.6 20.1-19.1 37.4-40.8 57.7-59.6 11.9-11 24.1-21.5 39.8-27 3.1-1.1 5.3-.4 7.7 1.6 1.5 1.3 1.9 2.2.3 3.5-.3.2-.4.5-.7.8-20.4 18.2-23.3 43.5-27.3 68.4 6.6-7.6 13.7-14.7 19.4-23.1 2.2-3.2 4.4-6.3 5.9-9.8 5.2-12 16.2-18.1 26-26.2.9 3.9 1.9 7.2 2.4 10.5.8 4.3 2.1 5.3 6.4 3 15.1-8.2 30.4-15.9 45.6-23.8 1-.5 2.1-1 4.1-2.1-3.2 7.9-6 14.9-8.8 21.9-.4 1.1-.7 2.2-1.3 3.2-5.4 8.8-5.3 17.2.7 25.8 1.9 2.7 2.1 6.6 2.9 10 .5 2 1 3.4 3.5 3.2 2.2-.2 4.7.6 5.6-2.7.7-2.6 1.9-5 2.6-7.5.8-2.8 2-2.7 4.2-1.3 30.3 18.8 60.6 37.5 90.4 57 10 6.5 15.4 16.6 18.8 27.5 2.4 7.9 6.2 14 13.9 17.5 8.2 3.7 12.8 10.7 16.3 18.6 2.3 5.2 4.8 10.2 7.1 15.4.6 1.3 1.9 2.8.6 4.1-1 1-2.5-.3-3.8-.4-1.1 0-2.2-.3-4.2-.6 3.8 7.3 6.8 14.3 8.6 21.9 3.9 16.2 6.3 32.7 7.6 49.3.9 11-1.5 22-4.2 32.6-2.6 10.1-3.6 20.3-3.2 30.6.1 3.7-.2 7.4.1 11 .4 4.5-1.3 4.9-4.6 2.8-3-1.9-4.2-1.1-5.3 2.3-7.2 20.9-9.1 42.9-12.5 64.5-1.9 12.3-2.8 24.8-4 37.2-.1 1.4-.5 2.6-1.3 3.7-11.8 18-18.7 38-23.9 58.8-5.8 23.3-14 45.8-26.2 66.7-2.4 4.1-5.1 6.7-9.8 7.2-3.6.3-6.2 2-8 5.2-.6 1.2-1.7 2.1-2.4 3.2-10.7 18.1-26 31-44.8 40.3-7.4 3.7-15 3.7-22.5 5.3-4.7 1-9.1.2-13.6-1.6-8.6-3.5-17.4-6.7-26-10.3-3.2-1.3-4.4-1.2-4.6 2.6-.3 6.3-.5 6.3-6.6 4-8.4-3.2-16.7-6.7-25.2-9.4-6.4-2.1-11.4-5.6-15.6-10.8-13.7-16.8-27.8-33.2-41.4-50-9.5-11.7-13.4-25.9-17.1-40.1-2-7.7-4.1-15.4-5.8-23.2-.6-2.5-1.1-3.6-3.8-2.4-2.5 1.2-3.5 0-4.6-2.5-10.9-24.6-15.7-50.8-20.3-77-.9-5.2-2.2-9.5-5.5-13.3-6.3-7.2-7.5-16.6-10.8-25-2.2-5.2-3.8-10.6-6-17.1" fill="#080a0b"/><path d="M445.2 1092.635c16.8-3.2 33.7-3.9 50.7-4.1 5-.1 9.9-.5 14.6-3.6-4.1-.9-7.7-1.8-11.4-2.6.1-2.5 3.1-2.5 3.7-4.6-19.1-5.6-38.3-7.9-58-3.2-19 4.5-37.2 11-53.8 21.3-1.9-9.7-3-20.7-3.7-31.7-.3-5.2 1.6-10.1 4.3-14.7 8.6-14.7 19.7-27.2 32.8-38 2.2-1.8 3.8-1.8 6.3-.9 17.2 6.2 34.5 12.1 51.7 18.4 9.4 3.4 19.1 1.5 28.6 2.6 21.3 2.4 41-5.2 61.1-10.2 17.8-4.4 34.6-11.9 51.7-18.3 17-6.4 33-2.7 49 3.4 4 1.5 6.9 4.5 8.4 8.7 8.7 24.3 12.6 49.2 9.6 75-.2 1.5-.1 3-1.2 4.4-10.1-5.3-21.1-6.8-32.3-7.1-22-.4-43.9.9-65.4 6.2-6.8 1.7-13.3 4.3-19.2 8.2-3.5 2.3-7.6 4.6-9 8.4-2.6 7-7.6 7-13.4 6.5q-3-.15-6 0c-7.5.1-13.9 0-20.3-6.5-9.2-9.3-22.7-11.1-35.3-13.8-14.4-3.1-29.1-3-43.7-3.1-.3-.2-.3-.4-.2-.5s.2-.2.4-.2m-42.6 97.6c4.3 4.9 9.3 8.6 14.6 11.9 21.3 13.2 44.2 17.8 68.3 10.4 24.8-7.6 37.7-26.7 44.3-50.6 2.2-8 3.5-16.3 3.1-24.7-.1-3 .7-4.1 3.9-4 4.7.3 9.3.3 14 0 4.4-.3 5.9.8 5.9 5.6.1 29.5 18.3 55.5 45.7 66 28.7 11 60.8 2.4 80.3-21.3.5-.6 1-1.2 2-2.3 1.2 5.4-.5 10-1 14.6-1 9.1-2.5 18.1-3.6 27.2-.2 1.8-.6 3.1-2.3 4.1-10.3 5.9-20.5 11.8-30.7 17.7-5.4 3.1-10.8 3.3-16.7 1.1-8.6-3.2-17-6.8-25.7-9.5-11.7-3.6-21.6-1.2-30 7.6-2.4 2.5-5.1 4.8-7.8 7-14.7 11.4-29.8 9.3-40.2-6.2-2.9-4.2-5.2-4.7-9-2.3-.3.2-.6.2-.9.3-7.2 3-7.2 3-3.9 10-7.2 2.5-14.5 4.4-22.1 4.7-16.3.6-32.6.8-48.9 1.3-5.2.2-8.9-2.4-12.1-5.9-6.7-7.1-11.5-15.6-15.3-24.4-4.8-11.1-9.2-22.4-12-34.3-.4-1.2-.9-2.3.1-4" fill="#ffcb0e"/><path d="M456.5 1109.635c12.9.1 25.3 1.1 37.3 5.1 18 6 24.1 15.5 22.2 34.2-2.4 23.6-20.6 45.8-42.9 50.4-37.7 7.9-61.3-17.1-66-46.5-.8-5.1-1-10.2-.6-15.4 1.1-11.6 7.6-18.8 18-23s21.4-4.6 32-4.8m195.5-6.1c6.5-.1 13-.1 19.2 2.1 7.1 2.5 11.7 7.4 12.5 14.8 2 18.6-.9 36.3-12.6 51.5-14.1 18.2-33.7 23.5-55.3 19.3-22.1-4.3-34.9-19.6-40.7-40.7-5.5-20 1.6-33.3 21.3-40.1 13.4-4.7 27.4-6.7 41.6-6.8 4.7.7 9.3.8 14-.1m-171.5 211.1q17.1-1.05 33.9-2.1c18.3-1.1 36.6-2.2 54.8-3.2 2.9-.2 5.5-1.1 8-2.5 14.2-8 28.7-15.3 44.7-19.2 3.2-.8 4.5-.4 6.6 2.5 4.3 6 3.3 10.4-.9 16.1-11.9 16.3-23.2 32.9-34.4 49.6-2.5 3.7-4.6 4.1-8.4 2.6-7.6-2.9-15.4-5.3-23-8.2-2.9-1.1-5.3-.9-8.1.3-13.5 6.1-26.9 12.2-41.8 14.5-2.4.4-3.9.4-5.3-2.1-8.5-15.6-17.2-31.2-25.8-46.8-.1-.2-.1-.7-.3-1.5" fill="#ffcb0e"/><path d="M652 1103.535c-4.7 1.6-9.3 1.6-14 .1 4.7-.6 9.3-.5 14-.1" fill="#fed507"/><path d="M563.2 1065.335c40.9-26.4 93.5-23.7 125 10.4-2.8 0-5 .2-7.2-.1-3.6-.5-2.7 2.4-3.2 4.3-26.5-15.6-54.9-14.2-83.5-10-5.4.8-10.7 2.1-16.1 3.2-1.4.3-3.5 1.1-3.5-1.2 0-5.4-3.8-5.2-7.4-5.7-1.4 0-2.7-.5-4.1-.9" fill="#080b0b"/><path d="M78 1365.835c0-13.7.1-27.3-.1-41-.1-3.4 1-4.1 4.2-4.1q22.95.3 45.9 0c3.4 0 4.2 1.1 4 4.2-1 16.1 2.6 12.6-13.9 14.3-5.3.6-13.77.9-19.07 1.3 0 0-.13.8.17 3.7 1.2 10.2.83 11.1.83 11.1h12.07c14.6.5 14.5.5 13.8 15.1-.1 2.3-.7 3.2-3.1 3.2-6.3.1-16.652.6-22.952.6 0 0-.148.7-.048 3.9.1 3.3-.1 6.7-.7 9.9-.5 2.9.17 3.3.17 3.3 8.4-.7 19.63-1.2 28.03-2.1 3-.3 4.2.4 4.2 3.5 0 5.8 2.6 13.1-.5 17-2.7 3.4-10.3.9-15.7 1-11.3.2-22.6 0-34 .1-2.8 0-3.6-.7-3.6-3.6.4-13.7.3-27.6.3-41.4" fill="#ffffff"/></g></svg>